<?xml version="1.0"?>
<svg xmlns="http://www.w3.org/2000/svg" width="512px" height="512px" viewBox="0 0 512 512" class=""><g transform="matrix(1.14924 0 0 1.14924 -38.2065 -38.2095)"><g id="Solid"><g><path d="M340,296a12.0137,12.0137,0,0,0,12-12V208h-3.04A18.0177,18.0177,0,0,1,336,215.8893V238a28.1341,28.1341,0,0,1-11.2,22.4l-17.7125,13.2842L313.4631,296Z" data-original="#000000" class="active-path" data-old_color="#000000" fill="#0CC29E"/><path d="M176,158.5156V198a2.002,2.002,0,0,0,2,2h50.6865l21.6568-21.6567a8,8,0,0,1,11.3134,0L283.3135,200H334a2.002,2.002,0,0,0,2-2V174.8306A137.4475,137.4475,0,0,1,265.7305,144H210.4317A88.3907,88.3907,0,0,1,176,158.5156ZM224,184H208V160h16Z" data-original="#000000" class="active-path" data-old_color="#000000" fill="#0CC29E"/><path d="M227.8129,128h21.6549a138.874,138.874,0,0,1-11.4484-15.2888A87.6765,87.6765,0,0,1,227.8129,128Z" data-original="#000000" class="active-path" data-old_color="#000000" fill="#0CC29E"/><path d="M163.04,208H160v76a12.0137,12.0137,0,0,0,12,12h26.5369l6.3183-22.1138-17.5637-13.06A28.1189,28.1189,0,0,1,176,238.3574V215.8893A18.0175,18.0175,0,0,1,163.04,208Z" data-original="#000000" class="active-path" data-old_color="#000000" fill="#0CC29E"/><path d="M352,192h14a2.002,2.002,0,0,0,2-2V168a8,8,0,0,1-8,8h-6q-1.0016,0-2-.0148Z" data-original="#000000" class="active-path" data-old_color="#000000" fill="#0CC29E"/><path d="M257.3335,304h-2.7124a28.18,28.18,0,0,1-16.7085-5.5322L218.58,284.0919,208.8887,318.01,256,371.8511,303.1113,318.01l-9.728-34.0473L274.1333,298.4A28.1713,28.1713,0,0,1,257.3335,304Z" data-original="#000000" class="active-path" data-old_color="#000000" fill="#0CC29E"/><path d="M352,159.9839V84a52.0589,52.0589,0,0,0-52-52H232v6A122.1462,122.1462,0,0,0,352,159.9839Z" data-original="#000000" class="active-path" data-old_color="#000000" fill="#0CC29E"/><path d="M320,238V216H280a7.9986,7.9986,0,0,1-5.6567-2.3433L256,195.3135l-18.3433,18.3432A7.9986,7.9986,0,0,1,232,216H192v22.3574a12.0505,12.0505,0,0,0,4.8389,9.6289l50.622,37.6431a12.0767,12.0767,0,0,0,7.16,2.3706h2.7124a12.0716,12.0716,0,0,0,7.2-2.4l50.667-38A12.0578,12.0578,0,0,0,320,238Zm-56,26H248a24,24,0,0,1-24-24h64A24,24,0,0,1,264,264Z" data-original="#000000" class="active-path" data-old_color="#000000" fill="#0CC29E"/><path d="M228.2831,94.9011A137.2014,137.2014,0,0,1,216,38V32h-4a52.0589,52.0589,0,0,0-52,52v60A72.38,72.38,0,0,0,228.2831,94.9011Z" data-original="#000000" class="active-path" data-old_color="#000000" fill="#0CC29E"/><path d="M328.1553,393.5688a8,8,0,0,1,4.8735-8.9965l27.876-11.15-43.66-38.2027L289.6675,480h10.2153l35.5928-49.83Z" data-original="#000000" class="active-path" data-old_color="#000000" fill="#0CC29E"/><path d="M146,192h14V160H146a2.002,2.002,0,0,0-2,2v28A2.002,2.002,0,0,0,146,192Z" data-original="#000000" class="active-path" data-old_color="#000000" fill="#0CC29E"/><path d="M352,432a8.0011,8.0011,0,0,1-1.49,4.65L342.4026,448H376V432Z" data-original="#000000" class="active-path" data-old_color="#000000" fill="#0CC29E"/><path d="M262.0205,389.2681a8,8,0,0,1-12.041,0l-36.6113-41.8416L238.62,480h34.76l25.252-132.5735Z" data-original="#000000" class="active-path" data-old_color="#000000" fill="#0CC29E"/><path d="M440.3491,378.4971l-88.824-34.5426,29.743,26.025a8,8,0,0,1-2.2969,13.4482L345.15,396.9565,348.9585,416H384a8,8,0,0,1,8,8v32a8,8,0,0,1-8,8H330.974l-11.4286,16H448V389.6812A11.9249,11.9249,0,0,0,440.3491,378.4971Z" data-original="#000000" class="active-path" data-old_color="#000000" fill="#0CC29E"/><path d="M160.1553,430.4312l6.6948-33.4747-33.8213-13.5288a8,8,0,0,1-2.2969-13.4482l29.743-26.0251L71.65,378.4971A11.9251,11.9251,0,0,0,64,389.6812V480H192.4546L161.49,436.65A8.0006,8.0006,0,0,1,160.1553,430.4312Z" data-original="#000000" class="active-path" data-old_color="#000000" fill="#0CC29E"/><path d="M151.0952,373.4219l27.876,11.15a8,8,0,0,1,4.8735,8.9965l-7.32,36.6016L212.1172,480h10.2153L194.7549,335.2192Z" data-original="#000000" class="active-path" data-old_color="#000000" fill="#0CC29E"/></g></g></g> </svg>
